<?xml version="1.0" standalone="no"?>
<!DOCTYPE svg PUBLIC "-//W3C//DTD SVG 20010904//EN"
 "http://www.w3.org/TR/2001/REC-SVG-20010904/DTD/svg10.dtd">
<svg version="1.0" xmlns="http://www.w3.org/2000/svg"
 width="512.000000pt" height="512.000000pt" viewBox="0 0 512.000000 512.000000"
 preserveAspectRatio="xMidYMid meet">

<g transform="translate(0.000000,512.000000) scale(0.100000,-0.100000)"
fill="#000000" stroke="none">
<path d="M1442 5101 c-63 -22 -123 -76 -155 -141 l-22 -45 -3 -2433 -2 -2433
24 -24 c25 -25 50 -31 81 -19 9 4 270 268 581 588 311 319 575 585 588 590 13
5 34 6 47 3 14 -4 243 -233 544 -543 286 -294 546 -560 577 -590 64 -61 95
-68 134 -29 l24 24 -2 2433 c-3 2250 -4 2436 -20 2470 -28 62 -94 125 -154
148 -54 20 -72 20 -1122 20 -1010 -1 -1070 -2 -1120 -19z"/>
</g>
</svg>
